<svg class="railroad-diagram" height="112.0" viewBox="0 0 184 112.0" width="184">
<g transform="translate(.5 .5)">
<g>
<path class="start" d="M20 46.0v20m10 -20v20m-10 -10h20" /></g><g>
<path class="altseq as1" d="M40 56.0h0" /><path class="altseq as2" d="M144.0 56.0h0" /><path class="altseq as3" d="M40.0 56.0a10 10 0 0 0 10 -10v-5.0a10 10 0 0 1 10 -10" /><g class="terminal ">
<path class="terminal term1" d="M60.0 31.0h10.0" /><path class="terminal term2" d="M114.0 31.0h10.0" /><rect height="22" rx="10" ry="10" width="44" x="70" y="20"></rect><text x="92" y="35">foo</text></g><path class="altseq as4" d="M124.0 31.0a10 10 0 0 1 10 10v5.0a10 10 0 0 0 10 10" /><path class="altseq as5" d="M40.0 56.0a10 10 0 0 1 10 10v5.0a10 10 0 0 0 10 10" /><g class="terminal ">
<path class="terminal term1" d="M60.0 81.0h10.0" /><path class="terminal term2" d="M114.0 81.0h10.0" /><rect height="22" rx="10" ry="10" width="44" x="70" y="70"></rect><text x="92" y="85">bar</text></g><path class="altseq as6" d="M124.0 81.0a10 10 0 0 0 10 -10v-5.0a10 10 0 0 1 10 -10" /><path class="altseq as7" d="M50.0 41.0a10 10 0 0 0 10 10h22.85786437626905a 10 10 0 0 1 7.071067811865475 2.9289321881345254l4.142135623730949 4.142135623730949a 10 10 0 0 0 7.071067811865475 2.9289321881345254h22.85786437626905a10 10 0 0 1 10 10" /><path class="altseq as8" d="M50.0 71.0a10 10 0 0 1 10 -10h22.85786437626905a 10 10 0 0 0 7.071067811865475 -2.9289321881345254l4.142135623730949 -4.142135623730949a 10 10 0 0 1 7.071067811865475 -2.9289321881345254h22.85786437626905a10 10 0 0 0 10 -10" /></g><path class="end" d="M 144 56.0 h 20 m -10 -10 v 20 m 10 -20 v 20"></path></g></svg>