<svg class="railroad-diagram" height="122" viewBox="0 0 148 122" width="148">
<g transform="translate(.5 .5)">
<g>
<path class="start" d="M20 51v20m10 -20v20m-10 -10h20" /></g><g>
<path class="choice ch1" d="M40 61h0.0" /><path class="choice ch2" d="M108.0 61h0.0" /><path class="choice ch3" d="M40.0 61a10 10 0 0 0 10 -10v-10a10 10 0 0 1 10 -10" /><g class="terminal ">
<path class="terminal term1" d="M60.0 31h0.0" /><path class="terminal term2" d="M88.0 31h0.0" /><rect height="22" rx="10" ry="10" width="28" x="60" y="20"></rect><text x="74" y="35">1</text></g><path class="choice ch4" d="M88.0 31a10 10 0 0 1 10 10v10a10 10 0 0 0 10 10" /><path class="choice ch5" d="M40.0 61h20" /><g class="terminal ">
<path class="terminal term1" d="M60.0 61h0.0" /><path class="terminal term2" d="M88.0 61h0.0" /><rect height="22" rx="10" ry="10" width="28" x="60" y="50"></rect><text x="74" y="65">2</text></g><path class="choice ch6" d="M88.0 61h20" /><path class="choice ch7" d="M40.0 61a10 10 0 0 1 10 10v10a10 10 0 0 0 10 10" /><g class="terminal ">
<path class="terminal term1" d="M60.0 91h0.0" /><path class="terminal term2" d="M88.0 91h0.0" /><rect height="22" rx="10" ry="10" width="28" x="60" y="80"></rect><text x="74" y="95">3</text></g><path class="choice ch8" d="M88.0 91a10 10 0 0 0 10 -10v-10a10 10 0 0 1 10 -10" /></g><path class="end" d="M 108 61 h 20 m -10 -10 v 20 m 10 -20 v 20"></path></g></svg>