<svg class="railroad-diagram" height="108" viewBox="0 0 352 108" width="352">
<g transform="translate(.5 .5)">
<g>
<path class="start" d="M20 29v20m10 -20v20m-10 -10h20" /></g><path d="M40 39h10" /><g>
<path class="seq seq1" d="M50 39h0.0" /><path class="seq seq2" d="M302.0 39h0.0" /><g class="terminal ">
<path class="terminal term1" d="M50.0 39h0.0" /><path class="terminal term2" d="M94.0 39h0.0" /><rect height="22" rx="10" ry="10" width="44" x="50" y="28"></rect><text x="72" y="43">foo</text></g><path class="seq seq4" d="M94.0 39h10" /><path class="seq seq3" d="M104.0 39h10" /><g>
<path class="group gr1" d="M114.0 39h0.0" /><path class="group gr2" d="M238.0 39h0.0" /><rect class="group-box" height="68" rx="10" ry="10" width="124" x="114" y="20"></rect><g>
<path class="choice ch1" d="M114.0 39h0.0" /><path class="choice ch2" d="M238.0 39h0.0" /><path class="choice ch5" d="M114.0 39h20" /><g class="non-terminal ">
<path class="nonterm nt1" d="M134.0 39h0.0" /><path class="nonterm nt2" d="M218.0 39h0.0" /><rect height="22" width="84" x="134" y="28"></rect><text x="176" y="43">option 1</text></g><path class="choice ch6" d="M218.0 39h20" /><path class="choice ch7" d="M114.0 39a10 10 0 0 1 10 10v10a10 10 0 0 0 10 10" /><g class="non-terminal ">
<path class="nonterm nt1" d="M134.0 69h0.0" /><path class="nonterm nt2" d="M218.0 69h0.0" /><rect height="22" width="84" x="134" y="58"></rect><text x="176" y="73">option 2</text></g><path class="choice ch8" d="M218.0 69a10 10 0 0 0 10 -10v-10a10 10 0 0 1 10 -10" /></g></g><path class="seq seq4" d="M238.0 39h10" /><path class="seq seq3" d="M248.0 39h10" /><g class="terminal ">
<path class="terminal term1" d="M258.0 39h0.0" /><path class="terminal term2" d="M302.0 39h0.0" /><rect height="22" rx="10" ry="10" width="44" x="258" y="28"></rect><text x="280" y="43">bar</text></g></g><path d="M302 39h10" /><path class="end" d="M 312 39 h 20 m -10 -10 v 20 m 10 -20 v 20"></path></g></svg>