<svg class="railroad-diagram" height="124" viewBox="0 0 352 124" width="352">
<g transform="translate(.5 .5)">
<g>
<path class="start" d="M20 45v20m10 -20v20m-10 -10h20" /></g><path d="M40 55h10" /><g>
<path class="seq seq1" d="M50 55h0.0" /><path class="seq seq2" d="M302.0 55h0.0" /><g class="terminal ">
<path class="terminal term1" d="M50.0 55h0.0" /><path class="terminal term2" d="M94.0 55h0.0" /><rect height="22" rx="10" ry="10" width="44" x="50" y="44"></rect><text x="72" y="59">foo</text></g><path class="seq seq4" d="M94.0 55h10" /><path class="seq seq3" d="M104.0 55h10" /><g>
<path class="group gr1" d="M114.0 55h0.0" /><path class="group gr2" d="M238.0 55h0.0" /><rect class="group-box" height="68" rx="10" ry="10" width="124" x="114" y="36"></rect><g>
<path class="choice ch1" d="M114.0 55h0.0" /><path class="choice ch2" d="M238.0 55h0.0" /><path class="choice ch5" d="M114.0 55h20" /><g class="non-terminal ">
<path class="nonterm nt1" d="M134.0 55h0.0" /><path class="nonterm nt2" d="M218.0 55h0.0" /><rect height="22" width="84" x="134" y="44"></rect><text x="176" y="59">option 1</text></g><path class="choice ch6" d="M218.0 55h20" /><path class="choice ch7" d="M114.0 55a10 10 0 0 1 10 10v10a10 10 0 0 0 10 10" /><g class="non-terminal ">
<path class="nonterm nt1" d="M134.0 85h0.0" /><path class="nonterm nt2" d="M218.0 85h0.0" /><rect height="22" width="84" x="134" y="74"></rect><text x="176" y="89">option 2</text></g><path class="choice ch8" d="M218.0 85a10 10 0 0 0 10 -10v-10a10 10 0 0 1 10 -10" /></g><g class="non-terminal ">
<path class="comment com1" d="M114.0 28h0.0" /><path class="comment com2" d="M194.0 28h0.0" /><a xlink:href="https://dictionary.cambridge.org/dictionary/english/choice"><text class="comment" x="154" y="33">Definition</text><text class="comment" x="154" y="33">Definition</text></a></g></g><path class="seq seq4" d="M238.0 55h10" /><path class="seq seq3" d="M248.0 55h10" /><g class="terminal ">
<path class="terminal term1" d="M258.0 55h0.0" /><path class="terminal term2" d="M302.0 55h0.0" /><rect height="22" rx="10" ry="10" width="44" x="258" y="44"></rect><text x="280" y="59">bar</text></g></g><path d="M302 55h10" /><path class="end" d="M 312 55 h 20 m -10 -10 v 20 m 10 -20 v 20"></path></g></svg>