<svg class="railroad-diagram" height="138" viewBox="0 0 256 138" width="256">
<g transform="translate(.5 .5)">
<g>
<path class="start" d="M20 59v20m10 -20v20m-10 -10h20" /></g><g>
<path class="horizchoice hc1" d="M40 69h0.0" /><path class="horizchoice hc2" d="M216.0 69h0.0" /><path class="horizchoice hc3" d="M40.0 69a10 10 0 0 0 10 -10v-29a10 10 0 0 1 10 -10h58" /><path class="horizchoice hc4" d="M138.0 118h58a10 10 0 0 0 10 -10v-29a10 10 0 0 1 10 -10" /><path class="horizchoice hc5" d="M40.0 69h10" /><g>
<path class="choice ch1" d="M50.0 69h0.0" /><path class="choice ch2" d="M118.0 69h0.0" /><path class="choice ch3" d="M50.0 69a10 10 0 0 0 10 -10v-10a10 10 0 0 1 10 -10" /><g class="terminal ">
<path class="terminal term1" d="M70.0 39h0.0" /><path class="terminal term2" d="M98.0 39h0.0" /><rect height="22" rx="10" ry="10" width="28" x="70" y="28"></rect><text x="84" y="43">1</text></g><path class="choice ch4" d="M98.0 39a10 10 0 0 1 10 10v10a10 10 0 0 0 10 10" /><path class="choice ch5" d="M50.0 69h20" /><g class="terminal ">
<path class="terminal term1" d="M70.0 69h0.0" /><path class="terminal term2" d="M98.0 69h0.0" /><rect height="22" rx="10" ry="10" width="28" x="70" y="58"></rect><text x="84" y="73">2</text></g><path class="choice ch6" d="M98.0 69h20" /><path class="choice ch7" d="M50.0 69a10 10 0 0 1 10 10v10a10 10 0 0 0 10 10" /><g class="terminal ">
<path class="terminal term1" d="M70.0 99h0.0" /><path class="terminal term2" d="M98.0 99h0.0" /><rect height="22" rx="10" ry="10" width="28" x="70" y="88"></rect><text x="84" y="103">3</text></g><path class="choice ch8" d="M98.0 99a10 10 0 0 0 10 -10v-10a10 10 0 0 1 10 -10" /></g><path class="horizchoice hc11" d="M118.0 69a10 10 0 0 1 10 10v29a10 10 0 0 0 10 10" /><path class="horizchoice hc6" d="M118.0 20a10 10 0 0 1 10 10v29a10 10 0 0 0 10 10" /><g>
<path class="choice ch1" d="M138.0 69h0.0" /><path class="choice ch2" d="M206.0 69h0.0" /><path class="choice ch3" d="M138.0 69a10 10 0 0 0 10 -10v-10a10 10 0 0 1 10 -10" /><g class="terminal ">
<path class="terminal term1" d="M158.0 39h0.0" /><path class="terminal term2" d="M186.0 39h0.0" /><rect height="22" rx="10" ry="10" width="28" x="158" y="28"></rect><text x="172" y="43">4</text></g><path class="choice ch4" d="M186.0 39a10 10 0 0 1 10 10v10a10 10 0 0 0 10 10" /><path class="choice ch5" d="M138.0 69h20" /><g class="terminal ">
<path class="terminal term1" d="M158.0 69h0.0" /><path class="terminal term2" d="M186.0 69h0.0" /><rect height="22" rx="10" ry="10" width="28" x="158" y="58"></rect><text x="172" y="73">5</text></g><path class="choice ch6" d="M186.0 69h20" /><path class="choice ch7" d="M138.0 69a10 10 0 0 1 10 10v10a10 10 0 0 0 10 10" /><g class="terminal ">
<path class="terminal term1" d="M158.0 99h0.0" /><path class="terminal term2" d="M186.0 99h0.0" /><rect height="22" rx="10" ry="10" width="28" x="158" y="88"></rect><text x="172" y="103">6</text></g><path class="choice ch8" d="M186.0 99a10 10 0 0 0 10 -10v-10a10 10 0 0 1 10 -10" /></g><path class="horizchoice hc7" d="M206.0 69h10" /></g><path class="end" d="M 216 69 h 20 m -10 -10 v 20 m 10 -20 v 20"></path></g></svg>