<svg class="railroad-diagram" height="122" viewBox="0 0 198 122" width="198">
<g transform="translate(.5 .5)">
<g>
<path class="start" d="M20 51v20m10 -20v20m-10 -10h20" /></g><path d="M40 61h10" /><g>
<path class="multichoice mc1" d="M50 61h0.0" /><path class="multichoice mc2" d="M148.0 61h0.0" /><path class="multichoice mc3" d="M80.0 61v-20a10 10 0 0 1 10 -10" /><g class="terminal ">
<path class="terminal term1" d="M90.0 31h0.0" /><path class="terminal term2" d="M118.0 31h0.0" /><rect height="22" rx="10" ry="10" width="28" x="90" y="20"></rect><text x="104" y="35">1</text></g><path class="multichoice mc4" d="M118.0 31a10 10 0 0 1 10 10v10" /><path class="multichoice mc5" d="M80.0 61h10" /><g class="terminal ">
<path class="terminal term1" d="M90.0 61h0.0" /><path class="terminal term2" d="M118.0 61h0.0" /><rect height="22" rx="10" ry="10" width="28" x="90" y="50"></rect><text x="104" y="65">2</text></g><path class="multichoice mc6" d="M118.0 61h10" /><path class="multichoice mc7" d="M80.0 61v20a10 10 0 0 0 10 10" /><g class="terminal ">
<path class="terminal term1" d="M90.0 91h0.0" /><path class="terminal term2" d="M118.0 91h0.0" /><rect height="22" rx="10" ry="10" width="28" x="90" y="80"></rect><text x="104" y="95">3</text></g><path class="multichoice mc8" d="M118.0 91a10 10 0 0 0 10 -10v-10" /><g class="diagram-text">
<title>take all branches, once each, in any order</title><path class="diagram-text" d="M 80.0 51 h -26 a 4 4 0 0 0 -4 4 v 12 a 4 4 0 0 0 4 4 h 26 z"></path><text class="diagram-text" x="65" y="65">all</text><path class="diagram-text" d="M 128.0 51 h 16 a 4 4 0 0 1 4 4 v 12 a 4 4 0 0 1 -4 4 h -16 z"></path><text class="diagram-arrow" x="138" y="65">↺</text></g></g><path d="M148 61h10" /><path class="end" d="M 158 61 h 20 m -10 -10 v 20 m 10 -20 v 20"></path></g></svg>