<svg class="railroad-diagram" height="71" viewBox="0 0 164 71" width="164">
<g transform="translate(.5 .5)">
<g>
<path class="start" d="M20 21v20m10 -20v20m-10 -10h20" /></g><path d="M40 31h10" /><g>
<path class="oneor oom1" d="M50 31h0.0" /><path class="oneor oom2" d="M114.0 31h0.0" /><path class="oneor oom3" d="M50.0 31h10" /><g class="terminal ">
<path class="terminal term1" d="M60.0 31h0.0" /><path class="terminal term2" d="M104.0 31h0.0" /><rect height="22" rx="10" ry="10" width="44" x="60" y="20"></rect><text x="82" y="35">foo</text></g><path class="oneor oom4" d="M104.0 31h10" /><path class="oneor oom5" d="M60.0 31a10 10 0 0 0 -10 10v0a10 10 0 0 0 10 10" /><g>
<path class="skip" d="M60.0 51h44" /></g><path class="oneor oom6" d="M104.0 51a10 10 0 0 0 10 -10v0a10 10 0 0 0 -10 -10" /></g><path d="M114 31h10" /><path class="end" d="M 124 31 h 20 m -10 -10 v 20 m 10 -20 v 20"></path></g></svg>