<svg class="railroad-diagram" height="80" viewBox="0 0 264 80" width="264">
<g transform="translate(.5 .5)">
<g>
<path class="start" d="M20 30v20m10 -20v20m-10 -10h20" /></g><g>
<path class="optseq os1" d="M40 40h0" /><path class="optseq os2" d="M224.0 40h0" /><path class="optseq os3" d="M40.0 40a10 10 0 0 0 10 -10v0a10 10 0 0 1 10 -10h28a10 10 0 0 1 10 10v0a10 10 0 0 0 10 10" /><path class="optseq os4" d="M40.0 40h20" /><g class="terminal ">
<path class="terminal term1" d="M60.0 40h0.0" /><path class="terminal term2" d="M88.0 40h0.0" /><rect height="22" rx="10" ry="10" width="28" x="60" y="29"></rect><text x="74" y="44">1</text></g><path class="optseq os5" d="M88.0 20h68a10 10 0 0 1 10 10v0a10 10 0 0 0 10 10" /><path class="optseq os6" d="M88.0 40h20" /><g class="terminal ">
<path class="terminal term1" d="M108.0 40h0.0" /><path class="terminal term2" d="M136.0 40h0.0" /><rect height="22" rx="10" ry="10" width="28" x="108" y="29"></rect><text x="122" y="44">2</text></g><path class="optseq os7" d="M136.0 40h20" /><path class="optseq os8" d="M88.0 40a10 10 0 0 1 10 10v0a10 10 0 0 0 10 10h28a10 10 0 0 0 10 -10v0a10 10 0 0 1 10 -10" /><path class="optseq os9" d="M156.0 40h20" /><g class="terminal ">
<path class="terminal term1" d="M176.0 40h0.0" /><path class="terminal term2" d="M204.0 40h0.0" /><rect height="22" rx="10" ry="10" width="28" x="176" y="29"></rect><text x="190" y="44">3</text></g><path class="optseq os10" d="M204.0 40h20" /><path class="optseq os11" d="M156.0 40a10 10 0 0 1 10 10v0a10 10 0 0 0 10 10h28a10 10 0 0 0 10 -10v0a10 10 0 0 1 10 -10" /></g><path class="end" d="M 224 40 h 20 m -10 -10 v 20 m 10 -20 v 20"></path></g></svg>