<svg class="railroad-diagram" height="81" viewBox="0 0 164 81" width="164">
<g transform="translate(.5 .5)">
<g>
<path class="start" d="M20 20v20m10 -20v20m-10 -10h20" /></g><g>
<path class="choice ch1" d="M40 30h0.0" /><path class="choice ch2" d="M124.0 30h0.0" /><path class="choice ch5" d="M40.0 30h20" /><g>
<path class="skip" d="M60.0 30h44" /></g><path class="choice ch6" d="M104.0 30h20" /><path class="choice ch7" d="M40.0 30a10 10 0 0 1 10 10v0a10 10 0 0 0 10 10" /><g class="terminal ">
<path class="terminal term1" d="M60.0 50h0.0" /><path class="terminal term2" d="M104.0 50h0.0" /><rect height="22" rx="10" ry="10" width="44" x="60" y="39"></rect><text x="82" y="54">foo</text></g><path class="choice ch8" d="M104.0 50a10 10 0 0 0 10 -10v0a10 10 0 0 1 10 -10" /></g><path class="end" d="M 124 30 h 20 m -10 -10 v 20 m 10 -20 v 20"></path></g></svg>