<svg class="railroad-diagram" height="92" viewBox="0 0 818 92" width="818" xmlns="http://www.w3.org/2000/svg" xmlns:xlink="http://www.w3.org/1999/xlink">
<g transform="translate(.5 .5)">
<g>
<path class="start " d="M20 21m0 10a 3.7,3.7 0 0 1 -3.7,3.7 3.7,3.7 0 0 1 -3.7,-3.7 3.7,3.7 0 0 1 3.7,-3.7 3.7,3.7 0 0 1 3.7,3.7 zM20 31h20" /></g><path d="M40 31h10" /><g>
<path class="seq seq1" d="M50 31h0.0" /><path class="seq seq2" d="M768.0 31h0.0" /><path class="arrow" d="M 50.0 31 h 20 m -5 -5 5,5 -5,5"></path><path class="seq seq3" d="M70.0 31h10" /><g class="terminal ">
<path class="terminal term1" d="M80.0 31h0.0" /><path class="terminal term2" d="M148.0 31h0.0" /><rect height="22" rx="10" ry="10" width="68" x="80" y="20"></rect><text x="114" y="35">SELECT</text></g><path class="seq seq4" d="M148.0 31h10" /><path class="arrow" d="M 158.0 31 h 20 m -5 -5 5,5 -5,5"></path><path class="seq seq3" d="M178.0 31h10" /><g>
<path class="oneor oom1" d="M188.0 31h0.0" /><path class="oneor oom2" d="M296.0 31h0.0" /><path class="oneor oom3" d="M188.0 31h10" /><g class="non-terminal ">
<path class="nonterm nt1" d="M198.0 31h10.0" /><path class="nonterm nt2" d="M276.0 31h10.0" /><rect height="22" width="68" x="208" y="20"></rect><text x="242" y="35">column</text></g><path class="oneor oom4" d="M286.0 31h10" /><path class="oneor oom5" d="M198.0 31a10 10 0 0 0 -10 10v10a10 10 0 0 0 10 10" /><g>
<path class="seq seq1" d="M198.0 61h0.0" /><path class="seq seq2" d="M286.0 61h0.0" /><path class="arrow" d="M 198.0 61 m 5 -5 -5,5 5,5 -5,-5 h 20"></path><path class="seq seq3" d="M218.0 61h10" /><g class="terminal ">
<path class="terminal term1" d="M228.0 61h0.0" /><path class="terminal term2" d="M256.0 61h0.0" /><rect height="22" rx="10" ry="10" width="28" x="228" y="50"></rect><text x="242" y="65">,</text></g><path class="seq seq4" d="M256.0 61h10" /><path class="arrow" d="M 266.0 61 m 5 -5 -5,5 5,5 -5,-5 h 20"></path></g><path class="oneor oom6" d="M286.0 61a10 10 0 0 0 10 -10v-10a10 10 0 0 0 -10 -10" /></g><path class="seq seq4" d="M296.0 31h10" /><path class="arrow" d="M 306.0 31 h 20 m -5 -5 5,5 -5,5"></path><path class="seq seq3" d="M326.0 31h10" /><g class="terminal ">
<path class="terminal term1" d="M336.0 31h0.0" /><path class="terminal term2" d="M388.0 31h0.0" /><rect height="22" rx="10" ry="10" width="52" x="336" y="20"></rect><text x="362" y="35">FROM</text></g><path class="seq seq4" d="M388.0 31h10" /><path class="arrow" d="M 398.0 31 h 20 m -5 -5 5,5 -5,5"></path><path class="seq seq3" d="M418.0 31h10" /><g>
<path class="oneor oom1" d="M428.0 31h0.0" /><path class="oneor oom2" d="M536.0 31h0.0" /><path class="oneor oom3" d="M428.0 31h10" /><g class="non-terminal ">
<path class="nonterm nt1" d="M438.0 31h14.0" /><path class="nonterm nt2" d="M512.0 31h14.0" /><rect height="22" width="60" x="452" y="20"></rect><text x="482" y="35">table</text></g><path class="oneor oom4" d="M526.0 31h10" /><path class="oneor oom5" d="M438.0 31a10 10 0 0 0 -10 10v10a10 10 0 0 0 10 10" /><g>
<path class="seq seq1" d="M438.0 61h0.0" /><path class="seq seq2" d="M526.0 61h0.0" /><path class="arrow" d="M 438.0 61 m 5 -5 -5,5 5,5 -5,-5 h 20"></path><path class="seq seq3" d="M458.0 61h10" /><g class="terminal ">
<path class="terminal term1" d="M468.0 61h0.0" /><path class="terminal term2" d="M496.0 61h0.0" /><rect height="22" rx="10" ry="10" width="28" x="468" y="50"></rect><text x="482" y="65">,</text></g><path class="seq seq4" d="M496.0 61h10" /><path class="arrow" d="M 506.0 61 m 5 -5 -5,5 5,5 -5,-5 h 20"></path></g><path class="oneor oom6" d="M526.0 61a10 10 0 0 0 10 -10v-10a10 10 0 0 0 -10 -10" /></g><path class="seq seq4" d="M536.0 31h10" /><path class="arrow" d="M 546.0 31 h 20 m -5 -5 5,5 -5,5"></path><path class="seq seq3" d="M566.0 31h10" /><g class="terminal ">
<path class="terminal term1" d="M576.0 31h0.0" /><path class="terminal term2" d="M636.0 31h0.0" /><rect height="22" rx="10" ry="10" width="60" x="576" y="20"></rect><text x="606" y="35">WHERE</text></g><path class="seq seq4" d="M636.0 31h10" /><path class="arrow" d="M 646.0 31 h 20 m -5 -5 5,5 -5,5"></path><path class="seq seq3" d="M666.0 31h10" /><g class="non-terminal ">
<path class="nonterm nt1" d="M676.0 31h0.0" /><path class="nonterm nt2" d="M768.0 31h0.0" /><rect height="22" width="92" x="676" y="20"></rect><text x="722" y="35">condition</text></g></g><path d="M768 31h10" /><path class="end" d="M 778 31 h 20 m -5 -5 5,5 -5,5"></path></g></svg>