<svg class="railroad-diagram" height="142" viewBox="0 0 168 142" width="168">
<g transform="translate(.5 .5)">
<g>
<path class="start" d="M20 21v20m10 -20v20m-10 -10h20" /></g><path d="M40 31h10" /><g>
<path class="stack stack1" d="M50 31h0.0" /><path class="stack stack2" d="M50.0 31h10" /><g class="terminal ">
<path class="terminal term1" d="M60.0 31h10.0" /><path class="terminal term2" d="M98.0 31h10.0" /><rect height="22" rx="10" ry="10" width="28" x="70" y="20"></rect><text x="84" y="35">1</text></g><path class="stack stack3" d="M108.0 31a10 10 0 0 1 10 10v0a10 10 0 0 1 -10 10h-48a10 10 0 0 0 -10 10v0a10 10 0 0 0 10 10h10" /><g class="terminal ">
<path class="terminal term1" d="M60.0 71h10.0" /><path class="terminal term2" d="M98.0 71h10.0" /><rect height="22" rx="10" ry="10" width="28" x="70" y="60"></rect><text x="84" y="75">2</text></g><path class="stack stack3" d="M108.0 71a10 10 0 0 1 10 10v0a10 10 0 0 1 -10 10h-48a10 10 0 0 0 -10 10v0a10 10 0 0 0 10 10h10" /><g class="terminal ">
<path class="terminal term1" d="M60.0 111h10.0" /><path class="terminal term2" d="M98.0 111h10.0" /><rect height="22" rx="10" ry="10" width="28" x="70" y="100"></rect><text x="84" y="115">3</text></g><path class="stack stack4" d="M108.0 111h10" /><path class="stack stack5" d="M118.0 111h0.0" /></g><path d="M118 111h10" /><path class="end" d="M 128 111 h 20 m -10 -10 v 20 m 10 -20 v 20"></path></g></svg>