<svg class="railroad-diagram" height="102" viewBox="0 0 184 102" width="184">
<g transform="translate(.5 .5)">
<g>
<path class="start" d="M20 21v20m10 -20v20m-10 -10h20" /></g><path d="M40 31h10" /><g>
<path class="stack stack1" d="M50 31h0.0" /><path class="stack stack2" d="M50.0 31h10" /><g class="terminal ">
<path class="terminal term1" d="M60.0 31h10.0" /><path class="terminal term2" d="M114.0 31h10.0" /><rect height="22" rx="10" ry="10" width="44" x="70" y="20"></rect><text x="92" y="35">foo</text></g><path class="stack stack3" d="M124.0 31a10 10 0 0 1 10 10v0a10 10 0 0 1 -10 10h-64a10 10 0 0 0 -10 10v0a10 10 0 0 0 10 10h10" /><g class="terminal ">
<path class="terminal term1" d="M60.0 71h10.0" /><path class="terminal term2" d="M114.0 71h10.0" /><rect height="22" rx="10" ry="10" width="44" x="70" y="60"></rect><text x="92" y="75">foo</text></g><path class="stack stack4" d="M124.0 71h10" /><path class="stack stack5" d="M134.0 71h0.0" /></g><path d="M134 71h10" /><path class="end" d="M 144 71 h 20 m -10 -10 v 20 m 10 -20 v 20"></path></g></svg>