<svg class="railroad-diagram" height="105" viewBox="0 0 184 105" width="184">
<g transform="translate(.5 .5)">
<g>
<path class="start" d="M20 20v20m10 -20v20m-10 -10h20" /></g><g>
<path class="choice ch1" d="M40 30h0.0" /><path class="choice ch2" d="M144.0 30h0.0" /><path class="choice ch5" d="M40.0 30h20" /><g>
<path class="skip" d="M60.0 30h64" /></g><path class="choice ch6" d="M124.0 30h20" /><path class="choice ch7" d="M40.0 30a10 10 0 0 1 10 10v0a10 10 0 0 0 10 10" /><g>
<path class="oneor oom1" d="M60.0 50h0.0" /><path class="oneor oom2" d="M124.0 50h0.0" /><path class="oneor oom3" d="M60.0 50h10" /><g class="terminal ">
<path class="terminal term1" d="M70.0 50h0.0" /><path class="terminal term2" d="M114.0 50h0.0" /><rect height="22" rx="10" ry="10" width="44" x="70" y="39"></rect><text x="92" y="54">foo</text></g><path class="oneor oom4" d="M114.0 50h10" /><path class="oneor oom5" d="M70.0 50a10 10 0 0 0 -10 10v7a10 10 0 0 0 10 10" /><g class="non-terminal ">
<path class="comment com1" d="M70.0 77h6.5" /><path class="comment com2" d="M107.5 77h6.5" /><text class="comment" x="92" y="82">bar</text></g><path class="oneor oom6" d="M114.0 77a10 10 0 0 0 10 -10v-7a10 10 0 0 0 -10 -10" /></g><path class="choice ch8" d="M124.0 50a10 10 0 0 0 10 -10v0a10 10 0 0 1 10 -10" /></g><path class="end" d="M 144 30 h 20 m -10 -10 v 20 m 10 -20 v 20"></path></g></svg>