<svg class="railroad-diagram" height="80" viewBox="0 0 184 80" width="184">
<g transform="translate(.5 .5)">
<g>
<path class="start" d="M20 30v20m10 -20v20m-10 -10h20" /></g><g>
<path class="choice ch1" d="M40 40h0.0" /><path class="choice ch2" d="M144.0 40h0.0" /><path class="choice ch3" d="M40.0 40a10 10 0 0 0 10 -10v0a10 10 0 0 1 10 -10" /><g>
<path class="skip" d="M60.0 20h64" /></g><path class="choice ch4" d="M124.0 20a10 10 0 0 1 10 10v0a10 10 0 0 0 10 10" /><path class="choice ch5" d="M40.0 40h20" /><g>
<path class="oneor oom1" d="M60.0 40h0.0" /><path class="oneor oom2" d="M124.0 40h0.0" /><path class="oneor oom3" d="M60.0 40h10" /><g class="terminal ">
<path class="terminal term1" d="M70.0 40h0.0" /><path class="terminal term2" d="M114.0 40h0.0" /><rect height="22" rx="10" ry="10" width="44" x="70" y="29"></rect><text x="92" y="44">foo</text></g><path class="oneor oom4" d="M114.0 40h10" /><path class="oneor oom5" d="M70.0 40a10 10 0 0 0 -10 10v0a10 10 0 0 0 10 10" /><g>
<path class="skip" d="M70.0 60h44" /></g><path class="oneor oom6" d="M114.0 60a10 10 0 0 0 10 -10v0a10 10 0 0 0 -10 -10" /></g><path class="choice ch6" d="M124.0 40h20" /></g><path class="end" d="M 144 40 h 20 m -10 -10 v 20 m 10 -20 v 20"></path></g></svg>